<mxfile host="65bd71144e">
    <diagram id="HeIw7b9UjkNd5B2_3CLr" name="Page-1">
        <mxGraphModel dx="692" dy="548" grid="1" gridSize="10" guides="1" tooltips="1" connect="1" arrows="1" fold="1" page="1" pageScale="1" pageWidth="850" pageHeight="1100" math="0" shadow="0">
            <root>
                <mxCell id="0"/>
                <mxCell id="1" parent="0"/>
                <mxCell id="11" style="edgeStyle=none;html=1;entryX=0;entryY=0.25;entryDx=0;entryDy=0;horizontal=1;" parent="1" source="2" target="4" edge="1">
                    <mxGeometry relative="1" as="geometry"/>
                </mxCell>
                <mxCell id="2" value="AXI to AIB Converter&lt;div&gt;Leader&lt;/div&gt;" style="rounded=1;whiteSpace=wrap;html=1;arcSize=3;fillColor=#fff2cc;strokeColor=#d6b656;fontSize=16;verticalAlign=top;horizontal=1;" parent="1" vertex="1">
                    <mxGeometry x="80" y="60" width="560" height="500" as="geometry"/>
                </mxCell>
                <mxCell id="16" style="edgeStyle=none;html=1;horizontal=1;" edge="1" parent="1" source="3" target="5">
                    <mxGeometry relative="1" as="geometry">
                        <Array as="points">
                            <mxPoint x="210" y="330"/>
                            <mxPoint x="510" y="330"/>
                        </Array>
                    </mxGeometry>
                </mxCell>
                <mxCell id="3" value="Calibration FSM" style="rounded=1;whiteSpace=wrap;html=1;fontSize=16;verticalAlign=top;fillColor=#f8cecc;strokeColor=#b85450;horizontal=1;" parent="1" vertex="1">
                    <mxGeometry x="120" y="360" width="180" height="80" as="geometry"/>
                </mxCell>
                <mxCell id="7" value="TX Phy" style="edgeStyle=none;html=1;exitX=1;exitY=0.25;exitDx=0;exitDy=0;entryX=0;entryY=0.25;entryDx=0;entryDy=0;horizontal=1;" parent="1" source="4" target="5" edge="1">
                    <mxGeometry relative="1" as="geometry"/>
                </mxCell>
                <mxCell id="4" value="AXI-MM&lt;div&gt;Leader&lt;/div&gt;" style="rounded=1;whiteSpace=wrap;html=1;arcSize=15;fillColor=#dae8fc;strokeColor=#6c8ebf;fontSize=16;verticalAlign=top;horizontal=1;" parent="1" vertex="1">
                    <mxGeometry x="120" y="120" width="180" height="180" as="geometry"/>
                </mxCell>
                <mxCell id="8" value="Rx Phy" style="edgeStyle=none;html=1;entryX=1;entryY=0.75;entryDx=0;entryDy=0;exitX=0;exitY=0.75;exitDx=0;exitDy=0;horizontal=1;" parent="1" source="5" target="4" edge="1">
                    <mxGeometry relative="1" as="geometry"/>
                </mxCell>
                <mxCell id="5" value="AIB PHY&lt;div&gt;Leader&lt;/div&gt;" style="rounded=1;whiteSpace=wrap;html=1;arcSize=15;fillColor=#e1d5e7;strokeColor=#9673a6;fontSize=16;verticalAlign=top;horizontal=1;" parent="1" vertex="1">
                    <mxGeometry x="420" y="120" width="180" height="180" as="geometry"/>
                </mxCell>
                <mxCell id="12" value="AXI4" style="endArrow=classic;html=1;startArrow=classic;startFill=1;horizontal=1;strokeWidth=2;" parent="1" edge="1">
                    <mxGeometry width="50" height="50" relative="1" as="geometry">
                        <mxPoint x="40" y="160" as="sourcePoint"/>
                        <mxPoint x="120" y="160" as="targetPoint"/>
                    </mxGeometry>
                </mxCell>
                <mxCell id="14" value="Start" style="endArrow=classic;html=1;horizontal=1;" parent="1" edge="1">
                    <mxGeometry width="50" height="50" relative="1" as="geometry">
                        <mxPoint x="40" y="400" as="sourcePoint"/>
                        <mxPoint x="120" y="400" as="targetPoint"/>
                    </mxGeometry>
                </mxCell>
                <mxCell id="15" value="IOPADs" style="endArrow=classic;startArrow=classic;html=1;horizontal=1;strokeWidth=2;" edge="1" parent="1">
                    <mxGeometry width="50" height="50" relative="1" as="geometry">
                        <mxPoint x="600" y="160" as="sourcePoint"/>
                        <mxPoint x="680" y="160" as="targetPoint"/>
                    </mxGeometry>
                </mxCell>
                <mxCell id="6" value="calibration&lt;div&gt;done&lt;/div&gt;" style="edgeStyle=none;html=1;labelBorderColor=none;spacingTop=0;labelBackgroundColor=default;horizontal=1;" parent="1" source="3" target="4" edge="1">
                    <mxGeometry relative="1" as="geometry"/>
                </mxCell>
                <mxCell id="17" value="Avalon MM&lt;div&gt;interface&lt;/div&gt;" style="rounded=1;whiteSpace=wrap;html=1;fontSize=16;verticalAlign=top;fillColor=#f8cecc;strokeColor=#b85450;horizontal=1;" vertex="1" parent="1">
                    <mxGeometry x="120" y="470" width="180" height="60" as="geometry"/>
                </mxCell>
                <mxCell id="18" value="avmm" style="endArrow=classic;startArrow=classic;html=1;strokeWidth=2;" edge="1" parent="1">
                    <mxGeometry width="50" height="50" relative="1" as="geometry">
                        <mxPoint x="40" y="499.5" as="sourcePoint"/>
                        <mxPoint x="120" y="499.5" as="targetPoint"/>
                    </mxGeometry>
                </mxCell>
                <mxCell id="19" value="Sideband" style="endArrow=classic;startArrow=classic;html=1;exitX=0.393;exitY=0.279;exitDx=0;exitDy=0;exitPerimeter=0;strokeWidth=2;" edge="1" parent="1">
                    <mxGeometry width="50" height="50" relative="1" as="geometry">
                        <mxPoint x="299.99999999999994" y="190.08000000000015" as="sourcePoint"/>
                        <mxPoint x="419.92" y="190" as="targetPoint"/>
                    </mxGeometry>
                </mxCell>
                <mxCell id="20" value="Auxiliar Channel" style="endArrow=classic;startArrow=classic;html=1;exitX=0.393;exitY=0.279;exitDx=0;exitDy=0;exitPerimeter=0;strokeWidth=2;" edge="1" parent="1">
                    <mxGeometry width="50" height="50" relative="1" as="geometry">
                        <mxPoint x="299.99999999999994" y="220.08000000000015" as="sourcePoint"/>
                        <mxPoint x="419.92" y="220" as="targetPoint"/>
                    </mxGeometry>
                </mxCell>
            </root>
        </mxGraphModel>
    </diagram>
</mxfile>